<svg xmlns="http://www.w3.org/2000/svg" width="900" height="900" viewBox="0 0 900 900" role="img" aria-label="Watercolor travel palette with 24 colors, open case — illustrative demo">
<defs><linearGradient id="case" x2="0" y2="1"><stop stop-color="#344454"/><stop offset="1" stop-color="#142330"/></linearGradient><filter id="shadow"><feDropShadow dx="0" dy="16" stdDeviation="16" flood-color="#172e3c" flood-opacity=".18"/></filter></defs>
<rect width="900" height="900" fill="#f4f1eb"/><rect x="40" y="40" width="820" height="820" rx="28" fill="#fff"/>
<text x="80" y="105" font-family="Arial,sans-serif" font-size="22" fill="#64748b" letter-spacing="2">PRIME • PROTOTYPE REFERENCE</text>
<g filter="url(#shadow)"><rect x="161" y="178" width="578" height="240" rx="24" fill="url(#case)"/><rect x="180" y="197" width="540" height="200" rx="13" fill="#f8f8f3"/>
<g fill="#fff" stroke="#dbe0df" stroke-width="3"><rect x="203" y="217" width="149" height="156" rx="10"/><rect x="375" y="217" width="149" height="156" rx="10"/><rect x="547" y="217" width="149" height="156" rx="10"/></g>
<rect x="250" y="412" width="75" height="17" rx="4" fill="#718290"/><rect x="575" y="412" width="75" height="17" rx="4" fill="#718290"/>
<rect x="161" y="423" width="578" height="260" rx="24" fill="url(#case)"/><rect x="181" y="443" width="538" height="218" rx="12" fill="#e9eae4"/>
<g stroke="#fff" stroke-width="8">
<rect x="198" y="460" width="50" height="48" rx="7" fill="#efe6b2"/><rect x="262" y="460" width="50" height="48" rx="7" fill="#f4cd36"/><rect x="326" y="460" width="50" height="48" rx="7" fill="#e9a823"/><rect x="390" y="460" width="50" height="48" rx="7" fill="#e97929"/><rect x="454" y="460" width="50" height="48" rx="7" fill="#d84432"/><rect x="518" y="460" width="50" height="48" rx="7" fill="#ad3445"/><rect x="582" y="460" width="50" height="48" rx="7" fill="#bd588c"/><rect x="646" y="460" width="50" height="48" rx="7" fill="#774672"/>
<rect x="198" y="528" width="50" height="48" rx="7" fill="#463877"/><rect x="262" y="528" width="50" height="48" rx="7" fill="#334f98"/><rect x="326" y="528" width="50" height="48" rx="7" fill="#437fbc"/><rect x="390" y="528" width="50" height="48" rx="7" fill="#348e9e"/><rect x="454" y="528" width="50" height="48" rx="7" fill="#2e7977"/><rect x="518" y="528" width="50" height="48" rx="7" fill="#327951"/><rect x="582" y="528" width="50" height="48" rx="7" fill="#79883e"/><rect x="646" y="528" width="50" height="48" rx="7" fill="#a1a854"/>
<rect x="198" y="596" width="50" height="48" rx="7" fill="#d8b87f"/><rect x="262" y="596" width="50" height="48" rx="7" fill="#b78751"/><rect x="326" y="596" width="50" height="48" rx="7" fill="#a15e3e"/><rect x="390" y="596" width="50" height="48" rx="7" fill="#78583f"/><rect x="454" y="596" width="50" height="48" rx="7" fill="#56594b"/><rect x="518" y="596" width="50" height="48" rx="7" fill="#536474"/><rect x="582" y="596" width="50" height="48" rx="7" fill="#4a4651"/><rect x="646" y="596" width="50" height="48" rx="7" fill="#30363c"/>
</g></g>
<text x="80" y="785" font-family="Arial,sans-serif" font-size="32" font-weight="700" fill="#172033">Watercolor Travel Palette</text><text x="80" y="823" font-family="Arial,sans-serif" font-size="21" fill="#64748b">24 colors • Open case • Illustrative demo asset</text>
</svg>
